<svg xmlns="http://www.w3.org/2000/svg" viewBox="0 0 512 512.009">
  <defs>
    <style>
      .cls-1 {
        fill: #11171a;
      }
    </style>
  </defs>
  <path id="icon-music" class="cls-1" d="M511.99,32.01A31.979,31.979,0,0,0,470.39,1.5L150.4,96A31.991,31.991,0,0,0,128,126.5V387.92A138.332,138.332,0,0,0,96,384c-53.02,0-96,28.65-96,64s42.98,64,96,64,96-28.65,96-64V214.31l256-75.02V323.92A138.332,138.332,0,0,0,416,320c-53.02,0-96,28.65-96,64s42.98,64,96,64,96-28.65,96-64l-.01-351.99Z" transform="translate(0 0.009)"/>
</svg>
