<svg xmlns="http://www.w3.org/2000/svg" viewBox="0 0 575.945 512.068">
  <defs>
    <style>
      .cls-1 {
        fill: #11171a;
      }
    </style>
  </defs>
  <path id="icon-lifestyle" class="cls-1" d="M546.2,9.7c-5.6-12.5-21.6-13-28.3-1.2C486.9,62.4,431.4,96,368,96H288C182,96,96,182,96,288a197.726,197.726,0,0,0,1.5,20.5C161.3,262.8,253.4,224,384,224a16,16,0,0,1,0,32C132.6,256,26,410.1,2.4,468a32.043,32.043,0,0,0,59.3,24.3c1.5-3.6,20.9-47.9,71.9-90.6,32.4,43.9,94,85.8,174.9,77.2C465.5,467.5,576,326.7,576,154.3c0-50.2-10.8-102.2-29.8-144.6Z" transform="translate(-0.055 0.023)"/>
</svg>
