<svg xmlns="http://www.w3.org/2000/svg" viewBox="0 0 448 512">
  <defs>
    <style>
      .cls-1 {
        fill: #11171a;
      }
    </style>
  </defs>
  <path id="icon-baking" class="cls-1" d="M448,384c-28.02,0-31.26-32-74.5-32-43.43,0-46.825,32-74.75,32-27.7,0-31.454-32-74.75-32-42.842,0-47.218,32-74.5,32-28.148,0-31.2-32-74.75-32S28.1,384,0,384V304a48.012,48.012,0,0,1,48-48H64V112h64V256h64V112h64V256h64V112h64V256h16a48.012,48.012,0,0,1,48,48Zm0,128H0V416c43.356,0,46.767-32,74.75-32C102.7,384,106,416,149.5,416c42.843,0,47.217-32,74.5-32,28.148,0,31.2,32,74.75,32,43.357,0,46.767-32,74.75-32,27.488,0,31.252,32,74.5,32ZM96,96A31.9,31.9,0,0,1,64,64C64,33,96,41,96,0c12,0,32,29.5,32,56S113.75,96,96,96Zm128,0a31.9,31.9,0,0,1-32-32c0-31,32-23,32-64,12,0,32,29.5,32,56S241.75,96,224,96Zm128,0a31.9,31.9,0,0,1-32-32c0-31,32-23,32-64,12,0,32,29.5,32,56S369.75,96,352,96Z"/>
</svg>
